HIERARCHY
ROOT Hips
{
	OFFSET 62.853199 -12.980113 80.501701
	CHANNELS 6 Xposition Yposition Zposition Xrotation Yrotation Zrotation
	JOINT spine
	{
		OFFSET 0.000000 -0.393701 6.846367
		CHANNELS 3 Xrotation Yrotation Zrotation
		JOINT spine1
		{
			OFFSET 0.000000 -0.000002 9.496208
			CHANNELS 3 Xrotation Yrotation Zrotation
			JOINT spine2
			{
				OFFSET 0.000000 -0.000001 9.099091
				CHANNELS 3 Xrotation Yrotation Zrotation
				JOINT Neck
				{
					OFFSET 0.000000 -1.113784 23.361198
					CHANNELS 3 Xrotation Yrotation Zrotation
					JOINT Head
					{
						OFFSET 0.000000 -0.000001 7.058014
						CHANNELS 3 Xrotation Yrotation Zrotation
						End Site
						{
							OFFSET 0.000000 5.634187 17.084396
						}
					}
				}
				JOINT RightShoulder
				{
					OFFSET -3.831360 0.533489 9.826309
					CHANNELS 3 Xrotation Yrotation Zrotation
					JOINT RightArm
					{
						OFFSET 0.000000 -0.000002 12.888100
						CHANNELS 3 Xrotation Yrotation Zrotation
						JOINT RightArmRoll
						{
							OFFSET 0.000000 -0.000001 6.506165
							CHANNELS 3 Xrotation Yrotation Zrotation
							JOINT RightForeArm
							{
								OFFSET 0.000000 -0.000003 18.950104
								CHANNELS 3 Xrotation Yrotation Zrotation
								JOINT RightForeArmRoll
								{
									OFFSET 0.000000 -0.000002 7.300919
									CHANNELS 3 Xrotation Yrotation Zrotation
									JOINT RightHand
									{
										OFFSET 0.000000 -0.000002 14.651398
										CHANNELS 3 Xrotation Yrotation Zrotation
										End Site
										{
											OFFSET 0.000000 0.000000 0.100006
										}
									}
								}
							}
						}
					}
				}
				JOINT LeftShoulder
				{
					OFFSET 3.831364 0.533489 9.826309
					CHANNELS 3 Xrotation Yrotation Zrotation
					JOINT LeftArm
					{
						OFFSET 0.000000 -0.000002 12.888100
						CHANNELS 3 Xrotation Yrotation Zrotation
						JOINT LeftArmRoll
						{
							OFFSET 0.000000 -0.000001 6.506165
							CHANNELS 3 Xrotation Yrotation Zrotation
							JOINT LeftForeArm
							{
								OFFSET 0.000000 -0.000003 18.950104
								CHANNELS 3 Xrotation Yrotation Zrotation
								JOINT LeftForeArmRoll
								{
									OFFSET 0.000000 -0.000002 7.300919
									CHANNELS 3 Xrotation Yrotation Zrotation
									JOINT LeftHand
									{
										OFFSET 0.000000 -0.000002 14.651398
										CHANNELS 3 Xrotation Yrotation Zrotation
										End Site
										{
											OFFSET 0.000000 0.000000 0.100006
										}
									}
								}
							}
						}
					}
				}
			}
		}
	}
	JOINT RightUpLeg
	{
		OFFSET -6.068371 0.933477 -1.112778
		CHANNELS 3 Xrotation Yrotation Zrotation
		JOINT RightUpLegRoll
		{
			OFFSET 0.000000 -0.000002 17.179604
			CHANNELS 3 Xrotation Yrotation Zrotation
			JOINT RightLeg
			{
				OFFSET 0.000000 0.000003 -21.274300
				CHANNELS 3 Xrotation Yrotation Zrotation
				JOINT RightLegRoll
				{
					OFFSET 0.000000 -0.000004 21.343903
					CHANNELS 3 Xrotation Yrotation Zrotation
					JOINT RightFoot
					{
						OFFSET 0.000000 -0.000003 17.765198
						CHANNELS 3 Xrotation Yrotation Zrotation
						JOINT RightToeBase
						{
							OFFSET 0.000000 -0.000002 14.850792
							CHANNELS 3 Xrotation Yrotation Zrotation
							End Site
							{
								OFFSET 0.006294 0.829004 7.192123
							}
						}
					}
				}
			}
		}
	}
	JOINT LeftUpLeg
	{
		OFFSET 6.068371 0.933477 -1.112778
		CHANNELS 3 Xrotation Yrotation Zrotation
		JOINT LeftUpLegRoll
		{
			OFFSET 0.000000 -0.000002 17.179703
			CHANNELS 3 Xrotation Yrotation Zrotation
			JOINT LeftLeg
			{
				OFFSET 0.000000 -0.000004 21.274200
				CHANNELS 3 Xrotation Yrotation Zrotation
				JOINT LeftLegRoll
				{
					OFFSET 0.000000 -0.000004 21.541206
					CHANNELS 3 Xrotation Yrotation Zrotation
					JOINT LeftFoot
					{
						OFFSET 0.000000 -0.000003 17.567902
						CHANNELS 3 Xrotation Yrotation Zrotation
						JOINT LeftToeBase
						{
							OFFSET 0.000000 -0.000002 14.850800
							CHANNELS 3 Xrotation Yrotation Zrotation
							End Site
							{
								OFFSET -0.028214 0.829003 7.192139
							}
						}
					}
				}
			}
		}
	}
}
MOTION
Frames: 4
Frame Time: 0.041667
58.768005 -2.704683 90.870201 0.016704 1.928139 -11.717261 -0.273658 -0.291215 0.254354 3.456888 -0.580978 0.517333 5.101967 -0.574645 0.524548 44.134633 5.571446 2.020402 -8.983116 -2.605036 3.127279 27.976093 -60.059786 31.847909 -54.385262 -115.995914 -95.372622 0.000004 -0.000003 -0.000006 76.088697 -1.212298 -1.144564 -0.000004 0.000004 -3.000000 -4.999742 -8.000064 -0.000018 1.178078 63.372852 -0.829894 95.141817 82.187530 -73.822098 -0.000001 0.000005 0.000004 98.427151 -3.655292 11.007389 0.000013 -0.000007 2.999990 -5.000019 8.000051 0.000003 -11.641230 -174.155863 0.546959 -179.999991 0.000006 -1.019005 171.585827 -1.835054 -0.472387 0.000001 -0.000001 -0.034843 65.567405 6.946106 2.206030 25.456882 -7.347726 -0.000004 -8.813030 175.274197 -1.298208 -0.000004 -0.000004 -1.024720 -15.934036 3.994491 1.067377 0.000001 -0.000003 -0.219813 70.027710 -6.852967 -2.154151 25.456960 7.355614 -0.000009 
58.780704 -2.698111 90.872704 0.037587 1.926020 -11.794661 -0.272166 -0.297331 0.253405 3.459885 -0.593167 0.514984 5.104967 -0.586868 0.522327 44.103102 5.545244 2.203647 -9.061175 -2.377401 3.296648 27.932738 -60.030901 31.807409 -54.258968 -115.829353 -95.105309 0.000004 -0.000001 -0.000004 76.199940 -1.151543 -1.210098 -0.000003 0.000005 -3.000002 -4.999742 -8.000069 -0.000020 1.152196 63.396354 -0.797323 97.351574 82.256624 -75.820864 -0.000003 0.000001 0.000007 98.554726 -3.708832 11.112480 0.000012 -0.000008 2.999989 -5.000014 8.000051 0.000003 -11.734098 -174.148008 0.547932 -179.999991 0.000005 -1.019004 171.472541 -1.836485 -0.479315 0.000000 -0.000001 -0.031753 65.576475 6.945747 2.207074 25.456880 -7.347725 -0.000005 -8.837985 175.266616 -1.313325 -0.000004 -0.000004 -1.024720 -15.963370 4.012520 1.071365 0.000001 -0.000003 -0.219814 70.035879 -6.852990 -2.154752 25.456953 7.355615 -0.000009 
58.783607 -2.691544 90.865593 0.058808 1.924139 -11.872976 -0.270628 -0.303585 0.252468 3.462984 -0.605610 0.512660 5.108071 -0.599345 0.520130 44.069477 5.521365 2.385776 -9.137845 -2.153288 3.466375 27.886339 -59.998103 31.764553 -54.122788 -115.664186 -94.825627 0.000004 -0.000001 -0.000006 76.310207 -1.092559 -1.275092 -0.000004 0.000006 -2.999999 -4.999743 -8.000072 -0.000018 1.124215 63.421687 -0.762119 99.588707 82.315254 -77.850974 -0.000001 0.000004 0.000006 98.685729 -3.761997 11.218798 0.000011 -0.000008 2.999990 -5.000018 8.000051 0.000000 -11.828035 -174.142162 0.548766 -179.999991 0.000006 -1.019004 171.358873 -1.837907 -0.485250 0.000000 -0.000001 -0.028619 65.585676 6.945440 2.208023 25.456880 -7.347720 -0.000004 -8.863452 175.258051 -1.328593 -0.000004 -0.000004 -1.024720 -15.993118 4.030774 1.075432 0.000002 -0.000003 -0.219813 70.044136 -6.852979 -2.155540 25.456955 7.355616 -0.000010 
58.794411 -2.688265 90.852600 0.080262 1.922418 -11.952092 -0.269054 -0.309936 0.251542 3.466152 -0.618233 0.510355 5.111233 -0.612003 0.517951 44.034305 5.499057 2.567128 -9.213577 -1.931771 3.636523 27.837814 -59.962606 31.720068 -53.975146 -115.501149 -94.532625 0.000003 -0.000001 -0.000004 76.419647 -1.034886 -1.339767 -0.000005 0.000006 -3.000000 -4.999743 -8.000066 -0.000018 1.094732 63.448318 -0.725045 101.848147 82.362908 -79.906055 -0.000002 0.000003 0.000006 98.819218 -3.814475 11.326253 0.000013 -0.000007 2.999986 -5.000016 8.000049 0.000001 -11.922794 -174.135386 0.549017 -179.999991 0.000006 -1.019004 171.244918 -1.839333 -0.492217 0.000000 -0.000001 -0.025453 65.594972 6.945145 2.208870 25.456878 -7.347725 -0.000004 -8.889263 175.249485 -1.344055 -0.000005 -0.000004 -1.024721 -16.023274 4.049187 1.079571 0.000001 -0.000003 -0.219812 70.052510 -6.852969 -2.156221 25.456953 7.355615 -0.000009 
